# xmcd
#
# Track frame offsets: 
#        150
#        10181
#        26043
#        40887
#        56085
#        68624
#        78647
#        92586
#        107339
#        120641
#        134303
#        153609
#        167467
#        188084
#        198359
#        215794
#
# Disc length: 3051 seconds
#
# Revision: 1
# Processed by: cddbd v1.5.2PL0 Copyright (c) Steve Scherf et al.
# Submitted via: ExactAudioCopy v0.99pb5
#
DISCID=d40be910
DTITLE=Hillbilly Casino - Tennessee Stomp
DYEAR=2010
DGENRE=Rock and Roll
TTITLE0=Debt With The Devil
TTITLE1=Tennessee Stomp
TTITLE2=80085
TTITLE3=Heartburn And Heartache
TTITLE4=No Toll Taken
TTITLE5=No One Else
TTITLE6=Another Goodbye
TTITLE7=The Ballad Of Psycho Steve
TTITLE8=Somethin's Getting Ready To Give
TTITLE9=The Doctor
TTITLE10=Violets In May
TTITLE11=Psycho
TTITLE12=I Was Made For Loving You
TTITLE13=I'm Over It
TTITLE14=Georgia Tornado
TTITLE15=You Got Me
EXTD=
EXTT0=
EXTT1=
EXTT2=
EXTT3=
EXTT4=
EXTT5=
EXTT6=
EXTT7=
EXTT8=
EXTT9=
EXTT10=
EXTT11=
EXTT12=
EXTT13=
EXTT14=
EXTT15=
PLAYORDER=
